<svg xmlns="http://www.w3.org/2000/svg" width="16" height="17.455" viewBox="0 0 16 17.455">
  <path id="android-bus" d="M5.625,17.591c0,.873.63,1.115,1.212,1.648v1.745a.973.973,0,0,0,.97.97h.97a.973.973,0,0,0,.97-.97v-.97H17.5v.97a.973.973,0,0,0,.97.97h.97a.973.973,0,0,0,.97-.97V19.239c.582-.533,1.212-.824,1.212-1.648V8.334c0-3.394-3.733-3.834-8-3.834s-8,.44-8,3.834Zm3.636.727a1.455,1.455,0,1,1,1.455-1.455A1.429,1.429,0,0,1,9.261,18.318Zm8.727,0a1.455,1.455,0,1,1,1.455-1.455A1.429,1.429,0,0,1,17.989,18.318Zm1.455-5.575H7.807V7.894H19.443Z" transform="translate(-5.625 -4.5)" fill="#3f3d58"/>
</svg>
