<svg id="download" xmlns="http://www.w3.org/2000/svg" width="17.263" height="14.027" viewBox="0 0 17.263 14.027">
  <path id="Path_167153" data-name="Path 167153" d="M.539,18a.539.539,0,0,1,.539.539v3.776a1.079,1.079,0,0,0,1.079,1.079H15.106a1.079,1.079,0,0,0,1.079-1.079V18.539a.539.539,0,1,1,1.079,0v3.776a2.158,2.158,0,0,1-2.158,2.158H2.158A2.158,2.158,0,0,1,0,22.316V18.539A.539.539,0,0,1,.539,18Z" transform="translate(0 -10.447)" fill="#fff" fill-rule="evenodd"/>
  <path id="Path_167154" data-name="Path 167154" d="M11.079,16.7a.539.539,0,0,1,.763,0l2.474,2.474L16.789,16.7a.539.539,0,0,1,.763.763L14.7,20.323a.539.539,0,0,1-.764,0l-2.855-2.856a.539.539,0,0,1,0-.763Z" transform="translate(-5.684 -9.69)" fill="#fff" fill-rule="evenodd"/>
  <path id="Path_167155" data-name="Path 167155" d="M17.414,2.25a.539.539,0,0,1,.539.539v8.632a.539.539,0,0,1-1.079,0V2.789A.539.539,0,0,1,17.414,2.25Z" transform="translate(-8.783 -2.25)" fill="#fff" fill-rule="evenodd"/>
</svg>
