<?xml version="1.0" encoding="utf-8"?>
<!-- Generator: Adobe Illustrator 23.0.0, SVG Export Plug-In . SVG Version: 6.00 Build 0)  -->
<svg version="1.1" id="Layer_1" xmlns="http://www.w3.org/2000/svg" xmlns:xlink="http://www.w3.org/1999/xlink" x="0px" y="0px"
	 viewBox="0 0 20 20.6" style="enable-background:new 0 0 20 20.6;" xml:space="preserve">
<style type="text/css">
	.st0{fill-rule:evenodd;clip-rule:evenodd;fill:#3F3D58;}
</style>
<title>download</title>
<g id="download">
	<path id="Path_167153" class="st0" d="M0.6,11.1c0.3,0,0.6,0.3,0.6,0.8l0,0v5.6c0.1,0.9,0.6,1.6,1.3,1.6H18
		c0.7,0.1,1.2-0.6,1.3-1.6l0,0v-5.5c0.1-0.5,0.4-0.9,0.8-0.8c0.3,0.1,0.5,0.4,0.5,0.8v5.6c-0.1,1.9-1.3,3.3-2.6,3.2H2.6
		c-1.3,0.1-2.5-1.3-2.6-3.2l0,0v-5.6C0,11.4,0.3,11.1,0.6,11.1z"/>
	<path id="Path_167154" class="st0" d="M6.4,10.3c0.3-0.3,0.6-0.3,0.9,0l3,3.6l3-3.6c0.3-0.3,0.7-0.3,0.9,0.1c0.2,0.2,0.2,0.7,0.1,1
		c0,0,0,0.1-0.1,0.1l-3.4,4.2c-0.3,0.3-0.6,0.3-0.9,0l-3.4-4.2c-0.2-0.2-0.2-0.7-0.1-1C6.4,10.4,6.4,10.3,6.4,10.3L6.4,10.3z"/>
	<path id="Path_167155" class="st0" d="M10.3,0c0.3,0,0.6,0.3,0.6,0.8l0,0v12.7c-0.1,0.5-0.4,0.9-0.8,0.8c-0.3-0.1-0.5-0.4-0.5-0.8
		V0.8C9.7,0.3,10,0,10.3,0z"/>
</g>
</svg>
