<svg xmlns="http://www.w3.org/2000/svg" width="28" height="27" viewBox="0 0 28 27">
  <g id="Group_22985" data-name="Group 22985" transform="translate(0.438 0.12)">
    <rect id="Rectangle_3087" data-name="Rectangle 3087" width="28" height="27" rx="13.5" transform="translate(-0.438 -0.12)" fill="#e6ebee" opacity="0.435"/>
    <path id="edit" d="M7.376,8.771l.963-.963L7.076,6.545l-.963.963v.465h.8v.8h.465Zm3.655-5.98a.172.172,0,0,0-.274.008L7.849,5.706a.188.188,0,1,0,.266.266l2.907-2.907a.171.171,0,0,0,.008-.274Zm.664,4.934V9.3A2.4,2.4,0,0,1,9.3,11.7H2.392a2.3,2.3,0,0,1-1.69-.7A2.306,2.306,0,0,1,0,9.3V2.392A2.3,2.3,0,0,1,.7.7,2.306,2.306,0,0,1,2.392,0H9.3a2.284,2.284,0,0,1,.972.208.253.253,0,0,1,.15.191.259.259,0,0,1-.075.241l-.407.407a.243.243,0,0,1-.266.067,1.472,1.472,0,0,0-.374-.05H2.392a1.28,1.28,0,0,0-.939.39,1.28,1.28,0,0,0-.39.939V9.3a1.28,1.28,0,0,0,.39.939,1.28,1.28,0,0,0,.939.39H9.3A1.333,1.333,0,0,0,10.632,9.3V8.256a.249.249,0,0,1,.075-.183l.532-.532a.25.25,0,0,1,.291-.058.241.241,0,0,1,.166.241Zm-.8-6.13,2.392,2.392L7.708,9.569H5.316V7.176Zm3.688,1.1-.764.764L11.429,1.063,12.193.3a.8.8,0,0,1,1.13,0l1.263,1.263a.769.769,0,0,1,.233.565.769.769,0,0,1-.233.565Z" transform="translate(6.153 7.533)" fill="#5aa5ca"/>
  </g>
</svg>
